<svg width="181" height="39" viewBox="0 0 181 39" fill="none" xmlns="http://www.w3.org/2000/svg">
<path d="M80.3395 4.87642V19.4219H77.2642V4.87642H80.3395ZM95.0359 4.87642V19.4219H92.3796L86.0515 10.267H85.945V19.4219H82.8697V4.87642H85.5685L91.8469 14.0241H91.9748V4.87642H95.0359ZM105.467 9.05966C105.411 8.48674 105.167 8.04167 104.736 7.72443C104.305 7.4072 103.72 7.24858 102.982 7.24858C102.48 7.24858 102.056 7.3196 101.71 7.46165C101.365 7.59896 101.099 7.79072 100.915 8.03693C100.735 8.28314 100.645 8.5625 100.645 8.875C100.635 9.13542 100.69 9.36269 100.808 9.55682C100.931 9.75095 101.099 9.91903 101.312 10.0611C101.526 10.1984 101.772 10.3191 102.051 10.4233C102.33 10.5227 102.629 10.608 102.946 10.679L104.253 10.9915C104.887 11.1335 105.47 11.3229 106 11.5597C106.53 11.7964 106.99 12.0876 107.378 12.4332C107.766 12.7789 108.067 13.1861 108.28 13.6548C108.498 14.1236 108.609 14.661 108.614 15.267C108.609 16.1572 108.382 16.929 107.932 17.5824C107.487 18.2311 106.843 18.7353 106 19.0952C105.162 19.4503 104.151 19.6278 102.967 19.6278C101.793 19.6278 100.77 19.4479 99.8991 19.0881C99.0327 18.7282 98.3556 18.1955 97.8679 17.4901C97.3849 16.7798 97.1316 15.9015 97.108 14.8551H100.084C100.117 15.3428 100.257 15.75 100.503 16.0767C100.754 16.3987 101.088 16.6425 101.504 16.8082C101.926 16.9692 102.402 17.0497 102.932 17.0497C103.453 17.0497 103.905 16.974 104.288 16.8224C104.677 16.6709 104.977 16.4602 105.19 16.1903C105.403 15.9205 105.51 15.6103 105.51 15.2599C105.51 14.9332 105.413 14.6586 105.219 14.4361C105.029 14.2135 104.75 14.0241 104.381 13.8679C104.016 13.7116 103.569 13.5696 103.038 13.4418L101.455 13.044C100.228 12.7457 99.2599 12.2794 98.5497 11.6449C97.8395 11.0104 97.4867 10.1558 97.4915 9.08097C97.4867 8.20028 97.7211 7.43087 98.1946 6.77273C98.6728 6.11458 99.3286 5.60085 100.162 5.23153C100.995 4.86222 101.942 4.67756 103.003 4.67756C104.082 4.67756 105.025 4.86222 105.83 5.23153C106.639 5.60085 107.269 6.11458 107.719 6.77273C108.169 7.43087 108.401 8.19318 108.415 9.05966H105.467ZM110.682 19.4219V4.87642H116.421C117.524 4.87642 118.464 5.08712 119.24 5.50852C120.017 5.92519 120.609 6.50521 121.016 7.24858C121.428 7.98722 121.634 8.83949 121.634 9.8054C121.634 10.7713 121.426 11.6236 121.009 12.3622C120.592 13.1009 119.989 13.6761 119.198 14.0881C118.412 14.5 117.46 14.706 116.343 14.706H112.685V12.2415H115.846C116.437 12.2415 116.925 12.1397 117.309 11.9361C117.697 11.7277 117.986 11.4413 118.175 11.0767C118.369 10.7074 118.466 10.2836 118.466 9.8054C118.466 9.32244 118.369 8.90104 118.175 8.54119C117.986 8.17661 117.697 7.89489 117.309 7.69602C116.92 7.49242 116.428 7.39062 115.831 7.39062H113.757V19.4219H110.682ZM123.631 19.4219V4.87642H133.433V7.41193H126.707V10.8778H132.928V13.4134H126.707V16.8864H133.461V19.4219H123.631ZM148.711 9.96875H145.6C145.544 9.56629 145.428 9.20881 145.252 8.89631C145.077 8.57907 144.852 8.30919 144.578 8.08665C144.303 7.86411 143.986 7.69365 143.626 7.57528C143.271 7.45691 142.885 7.39773 142.468 7.39773C141.716 7.39773 141.06 7.58475 140.501 7.95881C139.942 8.32812 139.509 8.8679 139.201 9.57812C138.894 10.2836 138.74 11.1406 138.74 12.1491C138.74 13.1861 138.894 14.0573 139.201 14.7628C139.514 15.4683 139.949 16.0009 140.508 16.3608C141.067 16.7206 141.713 16.9006 142.447 16.9006C142.859 16.9006 143.24 16.8461 143.591 16.7372C143.946 16.6283 144.261 16.4697 144.535 16.2614C144.81 16.0483 145.037 15.7902 145.217 15.4872C145.402 15.1842 145.529 14.8385 145.6 14.4503L148.711 14.4645C148.631 15.1321 148.43 15.776 148.108 16.3963C147.79 17.0118 147.362 17.5634 146.822 18.0511C146.287 18.5341 145.648 18.9176 144.904 19.2017C144.166 19.4811 143.33 19.6207 142.397 19.6207C141.1 19.6207 139.94 19.3272 138.917 18.7401C137.899 18.1529 137.094 17.303 136.502 16.1903C135.915 15.0777 135.622 13.7306 135.622 12.1491C135.622 10.563 135.92 9.21354 136.517 8.10085C137.113 6.98816 137.923 6.14062 138.946 5.55824C139.968 4.97112 141.119 4.67756 142.397 4.67756C143.24 4.67756 144.021 4.79593 144.741 5.03267C145.466 5.26941 146.107 5.61506 146.666 6.0696C147.225 6.51941 147.679 7.07102 148.029 7.72443C148.385 8.37784 148.612 9.12595 148.711 9.96875ZM150.363 7.41193V4.87642H162.309V7.41193H157.855V19.4219H154.816V7.41193H150.363ZM165.304 19.6065C164.835 19.6065 164.433 19.4408 164.097 19.1094C163.765 18.7732 163.599 18.3707 163.599 17.902C163.599 17.438 163.765 17.0402 164.097 16.7088C164.433 16.3774 164.835 16.2116 165.304 16.2116C165.759 16.2116 166.156 16.3774 166.497 16.7088C166.838 17.0402 167.009 17.438 167.009 17.902C167.009 18.2145 166.928 18.5009 166.767 18.7614C166.611 19.017 166.405 19.223 166.149 19.3793C165.893 19.5308 165.612 19.6065 165.304 19.6065Z" fill="#141414"/>
<path d="M77.4091 35.6953V24.0589H81.3409C82.2538 24.0589 83 24.2237 83.5795 24.5533C84.1629 24.879 84.5947 25.3203 84.875 25.8771C85.1553 26.4339 85.2955 27.0552 85.2955 27.7408C85.2955 28.4264 85.1553 29.0495 84.875 29.6101C84.5985 30.1707 84.1705 30.6177 83.5909 30.951C83.0114 31.2805 82.2689 31.4453 81.3636 31.4453H78.5455V30.1953H81.3182C81.9432 30.1953 82.4451 30.0874 82.8239 29.8714C83.2027 29.6555 83.4773 29.3639 83.6477 28.9964C83.822 28.6252 83.9091 28.2067 83.9091 27.7408C83.9091 27.2749 83.822 26.8582 83.6477 26.4908C83.4773 26.1233 83.2008 25.8355 82.8182 25.6271C82.4356 25.415 81.928 25.3089 81.2955 25.3089H78.8182V35.6953H77.4091ZM90.3435 35.6953V26.968H91.639V28.2862H91.7299C91.889 27.8544 92.1769 27.504 92.5935 27.2351C93.0102 26.9661 93.4799 26.8317 94.0026 26.8317C94.1011 26.8317 94.2242 26.8336 94.3719 26.8374C94.5197 26.8411 94.6314 26.8468 94.7072 26.8544V28.218C94.6617 28.2067 94.5575 28.1896 94.3947 28.1669C94.2356 28.1404 94.067 28.1271 93.889 28.1271C93.4647 28.1271 93.0859 28.2161 92.7526 28.3942C92.4231 28.5684 92.1617 28.8108 91.9685 29.1214C91.7791 29.4283 91.6844 29.7786 91.6844 30.1726V35.6953H90.3435ZM102.536 35.8771C101.749 35.8771 101.057 35.6896 100.463 35.3146C99.8717 34.9396 99.4096 34.415 99.0763 33.7408C98.7467 33.0665 98.5819 32.2786 98.5819 31.3771C98.5819 30.468 98.7467 29.6745 99.0763 28.9964C99.4096 28.3184 99.8717 27.7919 100.463 27.4169C101.057 27.0419 101.749 26.8544 102.536 26.8544C103.324 26.8544 104.014 27.0419 104.605 27.4169C105.199 27.7919 105.661 28.3184 105.991 28.9964C106.324 29.6745 106.491 30.468 106.491 31.3771C106.491 32.2786 106.324 33.0665 105.991 33.7408C105.661 34.415 105.199 34.9396 104.605 35.3146C104.014 35.6896 103.324 35.8771 102.536 35.8771ZM102.536 34.6726C103.135 34.6726 103.627 34.5192 104.014 34.2124C104.4 33.9055 104.686 33.5021 104.872 33.0021C105.057 32.5021 105.15 31.9605 105.15 31.3771C105.15 30.7938 105.057 30.2502 104.872 29.7464C104.686 29.2427 104.4 28.8355 104.014 28.5249C103.627 28.2143 103.135 28.0589 102.536 28.0589C101.938 28.0589 101.446 28.2143 101.059 28.5249C100.673 28.8355 100.387 29.2427 100.201 29.7464C100.016 30.2502 99.9228 30.7938 99.9228 31.3771C99.9228 31.9605 100.016 32.5021 100.201 33.0021C100.387 33.5021 100.673 33.9055 101.059 34.2124C101.446 34.5192 101.938 34.6726 102.536 34.6726ZM111.498 38.968V26.968H112.793V28.3544H112.952C113.051 28.2029 113.187 28.0097 113.362 27.7749C113.54 27.5362 113.793 27.3241 114.123 27.1385C114.456 26.9491 114.907 26.8544 115.475 26.8544C116.21 26.8544 116.858 27.0381 117.418 27.4055C117.979 27.773 118.416 28.2938 118.731 28.968C119.045 29.6423 119.202 30.4377 119.202 31.3544C119.202 32.2786 119.045 33.0798 118.731 33.7578C118.416 34.4321 117.981 34.9548 117.424 35.326C116.867 35.6934 116.225 35.8771 115.498 35.8771C114.937 35.8771 114.488 35.7843 114.151 35.5987C113.814 35.4093 113.555 35.1953 113.373 34.9567C113.191 34.7143 113.051 34.5135 112.952 34.3544H112.839V38.968H111.498ZM112.816 31.3317C112.816 31.9908 112.913 32.5722 113.106 33.076C113.299 33.576 113.581 33.968 113.952 34.2521C114.324 34.5324 114.778 34.6726 115.316 34.6726C115.877 34.6726 116.344 34.5249 116.719 34.2294C117.098 33.9302 117.382 33.5286 117.572 33.0249C117.765 32.5173 117.862 31.9529 117.862 31.3317C117.862 30.718 117.767 30.165 117.577 29.6726C117.392 29.1764 117.11 28.7843 116.731 28.4964C116.356 28.2048 115.884 28.0589 115.316 28.0589C114.771 28.0589 114.312 28.1972 113.941 28.4737C113.57 28.7464 113.29 29.129 113.1 29.6214C112.911 30.1101 112.816 30.6802 112.816 31.3317ZM127.867 35.8771C127.026 35.8771 126.301 35.6915 125.691 35.3203C125.085 34.9453 124.617 34.4226 124.287 33.7521C123.962 33.0779 123.799 32.2938 123.799 31.3999C123.799 30.5059 123.962 29.718 124.287 29.0362C124.617 28.3506 125.075 27.8165 125.662 27.4339C126.253 27.0476 126.943 26.8544 127.731 26.8544C128.185 26.8544 128.634 26.9302 129.077 27.0817C129.52 27.2332 129.924 27.4794 130.287 27.8203C130.651 28.1574 130.941 28.6044 131.157 29.1612C131.373 29.718 131.481 30.4036 131.481 31.218V31.7862H124.753V30.6271H130.117C130.117 30.1347 130.019 29.6953 129.822 29.3089C129.628 28.9226 129.352 28.6177 128.992 28.3942C128.636 28.1707 128.215 28.0589 127.731 28.0589C127.197 28.0589 126.734 28.1915 126.344 28.4567C125.958 28.718 125.661 29.0589 125.452 29.4794C125.244 29.8999 125.14 30.3506 125.14 30.8317V31.6044C125.14 32.2635 125.253 32.8222 125.481 33.2805C125.712 33.7351 126.032 34.0817 126.441 34.3203C126.85 34.5552 127.325 34.6726 127.867 34.6726C128.219 34.6726 128.537 34.6233 128.822 34.5249C129.109 34.4226 129.358 34.2711 129.566 34.0703C129.774 33.8658 129.935 33.612 130.049 33.3089L131.344 33.6726C131.208 34.112 130.979 34.4983 130.657 34.8317C130.335 35.1612 129.937 35.4188 129.464 35.6044C128.99 35.7862 128.458 35.8771 127.867 35.8771ZM136.48 35.6953V26.968H137.776V28.2862H137.867C138.026 27.8544 138.314 27.504 138.73 27.2351C139.147 26.9661 139.617 26.8317 140.139 26.8317C140.238 26.8317 140.361 26.8336 140.509 26.8374C140.657 26.8411 140.768 26.8468 140.844 26.8544V28.218C140.799 28.2067 140.694 28.1896 140.532 28.1669C140.372 28.1404 140.204 28.1271 140.026 28.1271C139.602 28.1271 139.223 28.2161 138.889 28.3942C138.56 28.5684 138.299 28.8108 138.105 29.1214C137.916 29.4283 137.821 29.7786 137.821 30.1726V35.6953H136.48ZM149.736 26.968V28.1044H145.213V26.968H149.736ZM146.531 24.8771H147.872V33.1953C147.872 33.5741 147.927 33.8582 148.037 34.0476C148.151 34.2332 148.295 34.3582 148.469 34.4226C148.647 34.4832 148.834 34.5135 149.031 34.5135C149.179 34.5135 149.3 34.5059 149.395 34.4908C149.49 34.4718 149.565 34.4567 149.622 34.4453L149.895 35.6499C149.804 35.6839 149.677 35.718 149.514 35.7521C149.351 35.79 149.145 35.8089 148.895 35.8089C148.516 35.8089 148.145 35.7275 147.781 35.5646C147.421 35.4018 147.122 35.1536 146.884 34.8203C146.649 34.487 146.531 34.0665 146.531 33.5589V24.8771ZM154.713 35.6953V26.968H156.054V35.6953H154.713ZM155.395 25.5135C155.133 25.5135 154.908 25.4245 154.719 25.2464C154.533 25.0684 154.44 24.8544 154.44 24.6044C154.44 24.3544 154.533 24.1404 154.719 23.9624C154.908 23.7843 155.133 23.6953 155.395 23.6953C155.656 23.6953 155.88 23.7843 156.065 23.9624C156.255 24.1404 156.349 24.3544 156.349 24.6044C156.349 24.8544 156.255 25.0684 156.065 25.2464C155.88 25.4245 155.656 25.5135 155.395 25.5135ZM165.129 35.8771C164.288 35.8771 163.563 35.6915 162.953 35.3203C162.347 34.9453 161.879 34.4226 161.549 33.7521C161.224 33.0779 161.061 32.2938 161.061 31.3999C161.061 30.5059 161.224 29.718 161.549 29.0362C161.879 28.3506 162.337 27.8165 162.924 27.4339C163.515 27.0476 164.205 26.8544 164.993 26.8544C165.447 26.8544 165.896 26.9302 166.339 27.0817C166.782 27.2332 167.186 27.4794 167.549 27.8203C167.913 28.1574 168.203 28.6044 168.419 29.1612C168.635 29.718 168.743 30.4036 168.743 31.218V31.7862H162.015V30.6271H167.379C167.379 30.1347 167.28 29.6953 167.083 29.3089C166.89 28.9226 166.614 28.6177 166.254 28.3942C165.898 28.1707 165.477 28.0589 164.993 28.0589C164.458 28.0589 163.996 28.1915 163.606 28.4567C163.22 28.718 162.922 29.0589 162.714 29.4794C162.506 29.8999 162.402 30.3506 162.402 30.8317V31.6044C162.402 32.2635 162.515 32.8222 162.743 33.2805C162.974 33.7351 163.294 34.0817 163.703 34.3203C164.112 34.5552 164.587 34.6726 165.129 34.6726C165.481 34.6726 165.799 34.6233 166.083 34.5249C166.371 34.4226 166.619 34.2711 166.828 34.0703C167.036 33.8658 167.197 33.612 167.311 33.3089L168.606 33.6726C168.47 34.112 168.241 34.4983 167.919 34.8317C167.597 35.1612 167.199 35.4188 166.725 35.6044C166.252 35.7862 165.72 35.8771 165.129 35.8771ZM179.924 28.9226L178.72 29.2635C178.644 29.0627 178.532 28.8677 178.384 28.6783C178.24 28.4851 178.043 28.326 177.793 28.201C177.543 28.076 177.223 28.0135 176.833 28.0135C176.299 28.0135 175.854 28.1366 175.498 28.3828C175.146 28.6252 174.97 28.9339 174.97 29.3089C174.97 29.6423 175.091 29.9055 175.333 30.0987C175.576 30.2919 175.954 30.4529 176.47 30.5817L177.765 30.8999C178.545 31.0893 179.127 31.379 179.509 31.7692C179.892 32.1555 180.083 32.6536 180.083 33.2635C180.083 33.7635 179.939 34.2105 179.651 34.6044C179.367 34.9983 178.97 35.3089 178.458 35.5362C177.947 35.7635 177.352 35.8771 176.674 35.8771C175.784 35.8771 175.047 35.6839 174.464 35.2976C173.881 34.9112 173.511 34.3468 173.356 33.6044L174.629 33.2862C174.75 33.7559 174.979 34.1082 175.316 34.343C175.657 34.5779 176.102 34.6953 176.651 34.6953C177.276 34.6953 177.773 34.5627 178.14 34.2976C178.511 34.0286 178.697 33.7067 178.697 33.3317C178.697 33.0286 178.591 32.7749 178.379 32.5703C178.167 32.362 177.841 32.2067 177.401 32.1044L175.947 31.7635C175.148 31.5741 174.56 31.2805 174.185 30.8828C173.814 30.4813 173.629 29.9794 173.629 29.3771C173.629 28.8847 173.767 28.4491 174.043 28.0703C174.324 27.6915 174.704 27.3942 175.185 27.1783C175.67 26.9624 176.22 26.8544 176.833 26.8544C177.697 26.8544 178.375 27.0438 178.867 27.4226C179.363 27.8014 179.716 28.3014 179.924 28.9226Z" fill="#4F46E5"/>
<path d="M18.9955 2.67188L10.8687 16.6802H30.9409L41.8094 35.4143H45.4322L26.4369 2.67188H18.9955Z" fill="#4F46E5"/>
<path d="M53.363 35.5814L34.4656 3.00781H30.5491L49.4464 35.5814H53.363Z" fill="#4F46E5"/>
<path d="M61.0001 35.5814L42.1028 3.00781H38.3821L57.2794 35.5814H61.0001Z" fill="#4F46E5"/>
<path d="M8.22472 21.7422H27.5137L24.87 26.2991H5.58105L8.22472 21.7422Z" fill="#4F46E5"/>
<path d="M2.74158 31.0234H22.1285L19.3869 35.7491H0L2.74158 31.0234Z" fill="#4F46E5"/>
<rect x="28.7866" y="29.5078" width="3.72072" height="6.07591" fill="#4F46E5"/>
</svg>
