<svg width="31" height="21" viewBox="0 0 31 21" fill="none" xmlns="http://www.w3.org/2000/svg">
<path d="M13.434 19.6167H6.54222C3.49584 19.6167 0.998812 17.1763 0.998812 14.199C0.998812 13.9062 0.799049 13.7109 0.499406 13.7109C0.199762 13.7109 0 13.9062 0 14.199C0 17.7132 2.94649 20.5929 6.54222 20.5929H13.434C13.7337 20.5929 13.9334 20.3977 13.9334 20.1048C13.9334 19.812 13.6837 19.6167 13.434 19.6167ZM16.4804 19.6167H15.4316C15.132 19.6167 14.9322 19.812 14.9322 20.1048C14.9322 20.3977 15.132 20.5929 15.4316 20.5929H16.4804C16.78 20.5929 16.9798 20.3977 16.9798 20.1048C16.9798 19.812 16.78 19.6167 16.4804 19.6167ZM30.4638 15.7121H22.0737C21.7741 15.7121 21.5743 15.9073 21.5743 16.2002C21.5743 16.4442 21.7741 16.6394 21.9739 16.6882V17.1763C21.9739 17.4692 22.1736 17.6644 22.4733 17.6644C22.7729 17.6644 22.9727 17.4692 22.9727 17.1763V16.6882H23.9715V17.1763C23.9715 17.4692 24.1712 17.6644 24.4709 17.6644C24.7705 17.6644 24.9703 17.4692 24.9703 17.1763V16.6882H25.9691V17.1763C25.9691 17.4692 26.1689 17.6644 26.4685 17.6644C26.7682 17.6644 26.9679 17.4692 26.9679 17.1763V16.6882H27.9667V17.1763C27.9667 17.4692 28.1665 17.6644 28.4661 17.6644C28.7658 17.6644 28.9655 17.4692 28.9655 17.1763V16.6882H29.9644V18.6406H22.0737C21.7741 18.6406 21.5743 18.8358 21.5743 19.1287C21.5743 19.4215 21.7741 19.6167 22.0737 19.6167H29.9644V20.1048C29.9644 20.3977 30.1641 20.5929 30.4638 20.5929C30.7634 20.5929 30.9632 20.3977 30.9632 20.1048V16.2002C30.9632 15.9073 30.7634 15.7121 30.4638 15.7121Z" fill="#2870DD"/>
<path d="M22.9727 12.2509V9.32238C22.9727 8.49264 22.3234 7.85813 21.4745 7.85813H20.975V6.39388C20.975 2.87969 18.0286 0 14.4328 0H6.54222C2.94649 0 0 2.87969 0 6.39388V12.1533C0 12.4461 0.199762 12.6413 0.499406 12.6413C0.799049 12.6413 0.998812 12.4461 0.998812 12.1533V10.7866H2.49703C2.79667 10.7866 2.99644 10.5914 2.99644 10.2985V6.93077C2.99644 5.51533 3.79548 4.19751 5.044 3.51419C5.2937 3.36777 5.39358 3.07492 5.24376 2.83088C5.09394 2.58684 4.7943 2.48922 4.54459 2.63565C2.99644 3.51419 1.99762 5.17368 1.99762 6.93077V9.81046H0.998812V6.39388C0.998812 3.41658 3.49584 0.976165 6.54222 0.976165H9.98812V2.00114H7.04162C6.74198 2.00114 6.54222 2.19637 6.54222 2.48922C6.54222 2.78207 6.74198 2.9773 7.04162 2.9773H10.4875C10.7872 2.9773 10.9869 2.78207 10.9869 2.48922V0.976165H14.4328C17.4792 0.976165 19.9762 3.41658 19.9762 6.39388V19.6209H18.478C18.1784 19.6209 17.9786 19.8162 17.9786 20.109C17.9786 20.4018 18.1784 20.5971 18.478 20.5971H20.4756C20.7753 20.5971 20.975 20.4018 20.975 20.109V13.7151H21.4745C22.3234 13.7151 22.9727 13.0806 22.9727 12.2509ZM21.9739 12.2509C21.9739 12.5437 21.7741 12.739 21.4745 12.739H20.975V8.83429H21.4745C21.7741 8.83429 21.9739 9.02953 21.9739 9.32238V12.2509Z" fill="#2870DD"/>
<path d="M10.4874 3.94531C6.89167 3.94531 3.99512 6.77619 3.99512 10.2904C3.99512 13.8046 6.89167 16.6355 10.4874 16.6355C10.787 16.6355 10.9868 16.4402 10.9868 16.1474C10.9868 15.8545 10.787 15.6593 10.4874 15.6593C7.44102 15.6593 4.99393 13.2677 4.99393 10.2904C4.99393 7.31308 7.44102 4.92148 10.4874 4.92148C13.5338 4.92148 15.9809 7.31308 15.9809 10.2904C15.9809 12.5844 14.4826 14.5855 12.3352 15.3664C12.0855 15.4641 11.9357 15.7569 12.0356 16.001C12.1354 16.245 12.4351 16.3914 12.6848 16.2938C15.2317 15.3664 16.9797 12.9748 16.9797 10.2904C16.9797 6.77619 14.0831 3.94531 10.4874 3.94531Z" fill="#2870DD"/>
<path d="M10.4875 9.8121C10.7871 9.8121 10.9869 9.61687 10.9869 9.32402C10.9869 9.03117 10.7871 8.83594 10.4875 8.83594C9.63849 8.83594 8.98926 9.47044 8.98926 10.3002C8.98926 11.1299 9.63849 11.7644 10.4875 11.7644C11.3365 11.7644 11.9857 11.1299 11.9857 10.3002C11.9857 10.0073 11.7859 9.8121 11.4863 9.8121C11.1866 9.8121 10.9869 10.0073 10.9869 10.3002C10.9869 10.593 10.7871 10.7883 10.4875 10.7883C10.1878 10.7883 9.98807 10.593 9.98807 10.3002C9.98807 10.0073 10.1878 9.8121 10.4875 9.8121Z" fill="#2870DD"/>
<path d="M3.4955 17.6168C3.77131 17.6168 3.99491 17.3983 3.99491 17.1287C3.99491 16.8591 3.77131 16.6406 3.4955 16.6406C3.21969 16.6406 2.99609 16.8591 2.99609 17.1287C2.99609 17.3983 3.21969 17.6168 3.4955 17.6168Z" fill="#2870DD"/>
<path d="M17.4789 3.94492C17.7547 3.94492 17.9783 3.72639 17.9783 3.45683C17.9783 3.18727 17.7547 2.96875 17.4789 2.96875C17.2031 2.96875 16.9795 3.18727 16.9795 3.45683C16.9795 3.72639 17.2031 3.94492 17.4789 3.94492Z" fill="#2870DD"/>
</svg>
