<svg width="36" height="20" viewBox="0 0 36 20" fill="none" xmlns="http://www.w3.org/2000/svg">
<path d="M18.1337 15.9357C18.367 15.9357 18.5951 15.8532 18.7891 15.6988C18.9831 15.5444 19.1343 15.325 19.2236 15.0683C19.3128 14.8116 19.3362 14.5292 19.2906 14.2568C19.245 13.9843 19.1326 13.7341 18.9676 13.5377C18.8025 13.3413 18.5923 13.2075 18.3634 13.1533C18.1345 13.0992 17.8973 13.127 17.6817 13.2334C17.4661 13.3397 17.2818 13.5197 17.1522 13.7507C17.0225 13.9817 16.9534 14.2533 16.9534 14.5311C16.9536 14.9036 17.0781 15.2607 17.2994 15.5241C17.5207 15.7874 17.8208 15.9355 18.1337 15.9357ZM18.1337 13.9785C18.2255 13.9786 18.3152 14.0111 18.3915 14.0718C18.4677 14.1326 18.5272 14.2189 18.5623 14.3199C18.5973 14.4209 18.6065 14.532 18.5885 14.6391C18.5706 14.7463 18.5263 14.8447 18.4614 14.9219C18.3965 14.9992 18.3138 15.0517 18.2238 15.073C18.1337 15.0943 18.0404 15.0833 17.9556 15.0415C17.8708 14.9997 17.7984 14.9289 17.7474 14.838C17.6964 14.7471 17.6692 14.6403 17.6692 14.5311C17.6693 14.3845 17.7183 14.244 17.8054 14.1404C17.8925 14.0368 18.0106 13.9786 18.1337 13.9785ZM35.9997 1.79745V0.945321H29.2438V1.79745H32.2637V2.21971C31.9909 2.29087 31.7468 2.47069 31.5716 2.72945C31.3964 2.9882 31.3006 3.3104 31.3 3.64276V5.30456H25.8154V4.7283C25.8149 4.16351 25.6261 3.62204 25.2906 3.22267C24.9552 2.8233 24.5003 2.59865 24.0259 2.59798H12.2415C11.7671 2.59865 11.3122 2.8233 10.9767 3.22267C10.6412 3.62204 10.4525 4.16351 10.452 4.7283V5.30456H4.90861V3.64275C4.90809 3.31039 4.8123 2.98819 4.63708 2.72944C4.46186 2.47068 4.21771 2.29086 3.94499 2.2197V1.79744H6.96484V0.945312H0.208984V1.79744H3.22918V2.21955C2.95642 2.29068 2.71223 2.47052 2.537 2.72931C2.36177 2.98811 2.266 3.31035 2.26552 3.64275V5.30456H1.28795C1.03658 5.30455 0.794862 5.4197 0.612898 5.62614C0.430934 5.83257 0.322686 6.11445 0.310598 6.41333C0.29851 6.71221 0.383509 7.00516 0.547972 7.23145C0.712435 7.45774 0.943746 7.60001 1.19394 7.62875L10.452 8.94502V10.7419C10.4534 11.0588 10.5149 11.3712 10.632 11.6559L8.46533 18.0619C8.38984 18.2844 8.37152 18.5286 8.41269 18.7635C8.45387 18.9984 8.55269 19.2135 8.69663 19.3816C8.84058 19.5496 9.02317 19.663 9.2213 19.7074C9.41942 19.7518 9.62415 19.7252 9.80956 19.6309C10.0492 19.5133 10.2403 19.288 10.3415 19.0039L12.9965 12.8722H14.0767C14.1656 14.08 14.6315 15.2044 15.3825 16.0235C16.1334 16.8426 17.115 17.2969 18.1335 17.2969C19.152 17.2969 20.1335 16.8426 20.8845 16.0235C21.6355 15.2044 22.1013 14.08 22.1902 12.8722H23.315L25.9559 18.9677C26.0056 19.1158 26.0794 19.2508 26.173 19.3649C26.2666 19.4791 26.3782 19.5701 26.5014 19.6328C26.6246 19.6955 26.757 19.7286 26.891 19.7304C27.0249 19.7321 27.1579 19.7023 27.2822 19.6428C27.4065 19.5832 27.5197 19.4951 27.6154 19.3834C27.711 19.2717 27.7872 19.1386 27.8396 18.9918C27.892 18.845 27.9195 18.6873 27.9206 18.5278C27.9217 18.3683 27.8964 18.2102 27.8461 18.0623L25.6607 11.6005C25.7623 11.3303 25.815 11.0378 25.8154 10.7418V8.93665L35.0147 7.62875C35.2649 7.60005 35.4963 7.4578 35.6608 7.2315C35.8253 7.0052 35.9103 6.71222 35.8982 6.4133C35.8861 6.11439 35.7779 5.83248 35.5959 5.62605C35.4139 5.41961 35.1721 5.30448 34.9207 5.30454H33.9431V3.64275C33.9427 3.31036 33.8469 2.98812 33.6717 2.72933C33.4965 2.47054 33.2523 2.2907 32.9795 2.21955V1.79745H35.9997ZM2.98133 3.64275C2.98153 3.48204 3.03525 3.32798 3.13071 3.21435C3.22616 3.10071 3.35558 3.03676 3.49058 3.03652H3.68317C3.81822 3.03667 3.94771 3.10058 4.04324 3.21423C4.13877 3.32787 4.19254 3.48198 4.19276 3.64275V5.30456H2.98133V3.64275ZM10.3932 8.07813L1.27428 6.78205L1.26449 6.7808C1.1971 6.77367 1.13462 6.73585 1.09006 6.67523C1.04551 6.61462 1.02233 6.53587 1.02535 6.4554C1.02837 6.37494 1.05735 6.29896 1.10627 6.24331C1.15518 6.18766 1.22025 6.15663 1.28791 6.15668H10.3933L10.3932 8.07813ZM9.69139 18.6498C9.67658 18.6939 9.65463 18.734 9.62677 18.7679C9.59892 18.8019 9.56572 18.8289 9.52907 18.8475C9.49242 18.8662 9.45304 18.876 9.41319 18.8765C9.37334 18.877 9.3338 18.8681 9.29684 18.8504C9.25987 18.8326 9.22621 18.8064 9.19778 18.7732C9.16935 18.7399 9.14671 18.7003 9.13115 18.6567C9.11559 18.613 9.10743 18.5661 9.10712 18.5186C9.10681 18.4712 9.11437 18.4241 9.12936 18.3802L11.1469 12.4147C11.446 12.6954 11.8132 12.8538 12.194 12.8664L9.69139 18.6498ZM18.1337 16.445C17.3072 16.442 16.5108 16.0755 15.8975 15.4161C15.2841 14.7566 14.8971 13.8506 14.8106 12.8722H21.4564C21.37 13.8506 20.983 14.7565 20.3697 15.416C19.7564 16.0754 18.9601 16.4419 18.1337 16.445ZM27.1799 18.6565C27.1483 18.7444 27.0887 18.8139 27.0141 18.8496C26.9396 18.8853 26.8562 18.8844 26.7822 18.847C26.741 18.8245 26.7041 18.7921 26.6739 18.752C26.6436 18.7118 26.6205 18.6647 26.606 18.6136L24.1154 12.8614C24.4957 12.8387 24.8597 12.6707 25.1535 12.3822L27.182 18.3806C27.197 18.4245 27.2045 18.4714 27.2042 18.5188C27.2038 18.5661 27.1956 18.6129 27.1799 18.6565ZM25.0996 10.7419C25.0993 11.0807 24.9861 11.4056 24.7848 11.6453C24.5835 11.8849 24.3105 12.0197 24.0259 12.02H12.2415C11.9568 12.0197 11.6839 11.8849 11.4826 11.6453C11.2813 11.4056 11.1681 11.0807 11.1678 10.7419V6.14503H12.7235V5.29291H11.1678V4.72829C11.1681 4.38941 11.2813 4.06451 11.4826 3.82488C11.6839 3.58526 11.9568 3.45047 12.2415 3.4501H24.0259C24.3105 3.45047 24.5835 3.58526 24.7848 3.82488C24.9861 4.06451 25.0993 4.38941 25.0996 4.72829V10.7419ZM34.9207 6.15668C34.9884 6.15663 35.0534 6.18766 35.1024 6.24331C35.1513 6.29896 35.1803 6.37494 35.1833 6.4554C35.1863 6.53587 35.1631 6.61462 35.1186 6.67523C35.074 6.73585 35.0115 6.77367 34.9441 6.7808L25.8154 8.07813V6.15668H34.9207ZM33.2273 3.64275V5.30456H32.0159V3.64275C32.0161 3.48198 32.0699 3.32787 32.1654 3.21423C32.2609 3.10058 32.3904 3.03667 32.5255 3.03652H32.7181C32.8531 3.03675 32.9825 3.10069 33.0779 3.21433C33.1734 3.32797 33.2271 3.48204 33.2273 3.64275ZM23.0969 9.83234H24.0196V10.6845H23.0969V9.83234ZM21.3762 9.83234H22.2989V10.6845H21.3762V9.83234ZM23.0969 7.82814H24.0196V8.68027H23.0969V7.82814ZM18.5073 5.31621H19.4031V6.16833H18.5073V5.31621ZM16.8377 5.31621H17.7332V6.16833H16.8377V5.31621ZM15.168 5.31621H16.0635V6.16833H15.1681L15.168 5.31621ZM13.4984 5.31621H14.3939V6.16833H13.4984V5.31621Z" fill="#7D7D7D"/>
</svg>
