<svg width="34" height="19" viewBox="0 0 34 19" fill="none" xmlns="http://www.w3.org/2000/svg">
<path d="M16.7174 14.9904C16.935 14.9903 17.1478 14.9079 17.3287 14.7535C17.5096 14.5991 17.6506 14.3797 17.7339 14.123C17.8171 13.8663 17.8389 13.5839 17.7964 13.3115C17.7539 13.039 17.649 12.7888 17.4951 12.5923C17.3412 12.3959 17.1451 12.2622 16.9316 12.208C16.7182 12.1539 16.4969 12.1817 16.2958 12.288C16.0948 12.3944 15.9229 12.5744 15.802 12.8054C15.6811 13.0364 15.6165 13.308 15.6165 13.5858C15.6168 13.9583 15.7329 14.3154 15.9393 14.5788C16.1457 14.8421 16.4255 14.9902 16.7174 14.9904ZM16.7174 13.0332C16.803 13.0333 16.8866 13.0658 16.9578 13.1265C17.0289 13.1873 17.0844 13.2736 17.1171 13.3746C17.1498 13.4756 17.1583 13.5866 17.1416 13.6938C17.1248 13.801 17.0836 13.8994 17.023 13.9766C16.9625 14.0538 16.8853 14.1064 16.8014 14.1277C16.7174 14.149 16.6304 14.138 16.5513 14.0962C16.4722 14.0544 16.4046 13.9835 16.3571 13.8927C16.3095 13.8018 16.2841 13.695 16.2841 13.5858C16.2843 13.4392 16.33 13.2987 16.4112 13.1951C16.4924 13.0915 16.6026 13.0333 16.7174 13.0332ZM33.38 0.852134V8.1265e-06H27.0792V0.852134H29.8956V1.2744C29.6413 1.34555 29.4136 1.52538 29.2502 1.78413C29.0867 2.04289 28.9974 2.36509 28.9969 2.69745V4.35925H23.8817V3.78299C23.8812 3.2182 23.7052 2.67673 23.3923 2.27736C23.0794 1.87799 22.6552 1.65334 22.2127 1.65267H11.2221C10.7796 1.65334 10.3554 1.87799 10.0425 2.27736C9.7296 2.67673 9.55359 3.2182 9.55307 3.78299V4.35925H4.38308V2.69744C4.38259 2.36508 4.29326 2.04288 4.12984 1.78412C3.96642 1.52537 3.73872 1.34554 3.48436 1.27439V0.852126H6.30081V0H0V0.852126H2.81676V1.27423C2.56238 1.34537 2.33464 1.52521 2.17121 1.784C2.00778 2.0428 1.91846 2.36504 1.91801 2.69744V4.35924H1.00629C0.771857 4.35924 0.546416 4.47439 0.376708 4.68082C0.207 4.88726 0.106043 5.16914 0.0947691 5.46802C0.0834952 5.7669 0.162769 6.05985 0.316155 6.28614C0.469541 6.51243 0.685271 6.65469 0.918618 6.68343L9.55307 7.99971V9.79654C9.55442 10.1135 9.6118 10.4259 9.72092 10.7106L7.70024 17.1166C7.62983 17.3391 7.61274 17.5833 7.65114 17.8182C7.68955 18.0531 7.78171 18.2682 7.91596 18.4363C8.05021 18.6043 8.22051 18.7177 8.40528 18.7621C8.59006 18.8065 8.781 18.7799 8.95392 18.6856C9.17744 18.568 9.35568 18.3427 9.45006 18.0586L11.9262 11.9269H12.9337C13.0166 13.1347 13.4511 14.2591 14.1515 15.0782C14.8518 15.8972 15.7673 16.3516 16.7172 16.3516C17.6671 16.3516 18.5825 15.8972 19.2829 15.0782C19.9833 14.2591 20.4178 13.1347 20.5007 11.9269H21.5497L24.0127 18.0224C24.0591 18.1705 24.1279 18.3055 24.2152 18.4196C24.3025 18.5337 24.4066 18.6248 24.5215 18.6875C24.6364 18.7502 24.7599 18.7833 24.8848 18.7851C25.0098 18.7868 25.1338 18.757 25.2497 18.6975C25.3656 18.6379 25.4712 18.5498 25.5604 18.4381C25.6496 18.3264 25.7207 18.1933 25.7695 18.0465C25.8184 17.8997 25.8441 17.742 25.8451 17.5825C25.8462 17.423 25.8225 17.2648 25.7756 17.117L23.7375 10.6552C23.8321 10.385 23.8813 10.0925 23.8817 9.79651V7.99134L32.4614 6.68343C32.6948 6.65473 32.9105 6.51249 33.0639 6.28619C33.2174 6.05989 33.2966 5.7669 33.2854 5.46799C33.2741 5.16908 33.1731 4.88717 33.0034 4.68074C32.8336 4.4743 32.6082 4.35917 32.3737 4.35923H31.462V2.69744C31.4615 2.36505 31.3722 2.04281 31.2088 1.78402C31.0454 1.52523 30.8176 1.34539 30.5633 1.27424V0.852134H33.38ZM2.58561 2.69744C2.5858 2.53673 2.6359 2.38267 2.72493 2.26903C2.81396 2.15539 2.93465 2.09145 3.06056 2.09121H3.24018C3.36613 2.09136 3.4869 2.15527 3.576 2.26891C3.66509 2.38256 3.71524 2.53667 3.71545 2.69744V4.35924H2.58561V2.69744ZM9.49827 7.13282L0.993542 5.83674L0.984416 5.83548C0.921561 5.82835 0.863285 5.79054 0.821734 5.72992C0.780183 5.6693 0.758563 5.59055 0.761378 5.51009C0.764193 5.42963 0.791228 5.35365 0.836847 5.298C0.882466 5.24235 0.94315 5.21132 1.00625 5.21137H9.4983L9.49827 7.13282ZM8.84371 17.7045C8.82991 17.7485 8.80943 17.7887 8.78345 17.8226C8.75747 17.8565 8.72651 17.8836 8.69233 17.9022C8.65814 17.9209 8.62142 17.9307 8.58425 17.9312C8.54709 17.9317 8.51021 17.9228 8.47574 17.9051C8.44126 17.8873 8.40987 17.8611 8.38335 17.8279C8.35684 17.7946 8.33572 17.755 8.32121 17.7113C8.3067 17.6677 8.29908 17.6208 8.2988 17.5733C8.29851 17.5259 8.30556 17.4788 8.31954 17.4349L10.2012 11.4694C10.4802 11.7501 10.8226 11.9085 11.1777 11.9211L8.84371 17.7045ZM16.7174 15.4997C15.9466 15.4967 15.2038 15.1302 14.6318 14.4708C14.0597 13.8113 13.6988 12.9053 13.6182 11.9269H19.8163C19.7357 12.9053 19.3748 13.8112 18.8028 14.4707C18.2308 15.1301 17.4881 15.4966 16.7174 15.4997ZM25.1543 17.7112C25.1248 17.7991 25.0692 17.8686 24.9997 17.9043C24.9301 17.94 24.8524 17.9391 24.7833 17.9017C24.7449 17.8791 24.7106 17.8468 24.6823 17.8067C24.6541 17.7665 24.6325 17.7194 24.6191 17.6683L22.2961 11.9161C22.6509 11.8934 22.9904 11.7254 23.2644 11.4369L25.1563 17.4353C25.1702 17.4792 25.1773 17.5261 25.1769 17.5735C25.1766 17.6208 25.1689 17.6676 25.1543 17.7112ZM23.2141 9.79654C23.2138 10.1354 23.1082 10.4603 22.9205 10.6999C22.7327 10.9396 22.4782 11.0744 22.2127 11.0747H11.2221C10.9566 11.0744 10.702 10.9396 10.5143 10.6999C10.3266 10.4603 10.221 10.1354 10.2207 9.79654V5.19972H11.6716V4.3476H10.2207V3.78298C10.221 3.44409 10.3266 3.1192 10.5143 2.87957C10.702 2.63994 10.9566 2.50516 11.2221 2.50479H22.2127C22.4782 2.50516 22.7327 2.63994 22.9205 2.87957C23.1082 3.1192 23.2138 3.44409 23.2141 3.78298V9.79654ZM32.3737 5.21137C32.4368 5.21132 32.4975 5.24235 32.5431 5.298C32.5887 5.35365 32.6158 5.42963 32.6186 5.51009C32.6214 5.59055 32.5998 5.6693 32.5582 5.72992C32.5167 5.79054 32.4584 5.82835 32.3956 5.83548L23.8817 7.13282V5.21137H32.3737ZM30.7944 2.69744V4.35924H29.6645V2.69744C29.6647 2.53667 29.7149 2.38256 29.804 2.26891C29.8931 2.15527 30.0138 2.09136 30.1398 2.09121H30.3194C30.4453 2.09144 30.566 2.15538 30.6551 2.26902C30.7441 2.38266 30.7942 2.53672 30.7944 2.69744ZM21.3462 8.88703H22.2068V9.73916H21.3462V8.88703ZM19.7415 8.88703H20.602V9.73916H19.7415V8.88703ZM21.3462 6.88283H22.2068V7.73496H21.3462V6.88283ZM17.0659 4.37089H17.9013V5.22302H17.0659V4.37089ZM15.5087 4.37089H16.3438V5.22302H15.5087V4.37089ZM13.9515 4.37089H14.7866V5.22302H13.9515L13.9515 4.37089ZM12.3943 4.37089H13.2295V5.22302H12.3943V4.37089Z" fill="#2BB050"/>
</svg>
