<svg width="35" height="24" viewBox="0 0 35 24" fill="none" xmlns="http://www.w3.org/2000/svg">
<path d="M25.9903 6.08924H25.3268V5.44147H25.9903V6.08924ZM24.7531 5.44147H24.0896V6.08924H24.7531V5.44147ZM25.9903 4.00235H25.3268V4.65011H25.9903V4.00235ZM27.367 5.44147H26.7036V6.08924H27.367V5.44147ZM24.7531 2.65116H24.0896V3.29893H24.7531V2.65116ZM24.7531 4.00236H24.0896V4.65012H24.7531V4.00236ZM25.8285 12.0342C25.209 12.0349 24.6151 12.2757 24.1771 12.7038C23.7391 13.132 23.4928 13.7124 23.4922 14.3179H24.155C24.1549 13.9943 24.253 13.678 24.4368 13.409C24.6207 13.1399 24.8821 12.9302 25.1879 12.8063C25.4937 12.6824 25.8302 12.65 26.1549 12.7131C26.4796 12.7761 26.7779 12.9319 27.012 13.1607C27.2461 13.3894 27.4055 13.6809 27.4701 13.9982C27.5347 14.3155 27.5016 14.6444 27.3749 14.9433C27.2482 15.2422 27.0337 15.4977 26.7584 15.6775C26.4831 15.8572 26.1595 15.9531 25.8285 15.9531H13.0552V16.6008H25.8285C26.1356 16.6013 26.4398 16.5427 26.7237 16.4281C27.0077 16.3136 27.2657 16.1455 27.483 15.9334C27.7004 15.7214 27.8728 15.4695 27.9905 15.1922C28.1081 14.9149 28.1687 14.6177 28.1687 14.3175C28.1687 14.0174 28.1081 13.7201 27.9905 13.4429C27.8728 13.1656 27.7004 12.9137 27.483 12.7016C27.2657 12.4896 27.0077 12.3215 26.7237 12.2069C26.4398 12.0924 26.1356 12.0337 25.8285 12.0342ZM34.5817 20.3938C34.5823 20.7898 34.503 21.182 34.3483 21.548C34.1937 21.914 33.9667 22.2466 33.6804 22.5268C33.3942 22.807 33.0542 23.0293 32.6799 23.181C32.3056 23.3326 31.9044 23.4107 31.4993 23.4107C31.0941 23.4107 30.6929 23.3326 30.3186 23.181C29.9444 23.0293 29.6044 22.807 29.3181 22.5268C29.0318 22.2466 28.8048 21.914 28.6502 21.548C28.4956 21.182 28.4163 20.7898 28.4169 20.3938H29.0797C29.0796 20.8615 29.2215 21.3187 29.4873 21.7076C29.7532 22.0965 30.1311 22.3996 30.5732 22.5786C31.0153 22.7576 31.5018 22.8045 31.9711 22.7133C32.4405 22.6221 32.8717 22.3969 33.2101 22.0662C33.5485 21.7355 33.779 21.3141 33.8723 20.8554C33.9657 20.3967 33.9179 19.9213 33.7348 19.4891C33.5516 19.057 33.2415 18.6877 32.8437 18.4278C32.4458 18.1679 31.978 18.0292 31.4994 18.0292H9.71051C8.39557 18.0274 7.12864 17.5461 6.15761 16.6795C5.18659 15.813 4.58135 14.6235 4.46032 13.3438C3.43387 13.2527 2.48167 12.7822 1.79797 12.0284C1.11426 11.2746 0.750567 10.2943 0.781072 9.28746C0.811576 8.28059 1.23398 7.32302 1.96212 6.6101C2.69026 5.89717 3.66927 5.4826 4.69945 5.45096C4.86733 4.97717 5.13647 4.54372 5.48896 4.17942C5.84146 3.81512 6.26925 3.5283 6.7439 3.33803C7.21855 3.14776 7.7292 3.05839 8.24192 3.07586C8.75464 3.09333 9.25768 3.21723 9.71763 3.43935C9.98453 2.58382 10.488 1.81697 11.1726 1.22338C11.8572 0.629799 12.6962 0.232554 13.5972 0.0754706C14.4981 -0.0816131 15.4259 0.00756902 16.2783 0.333178C17.1306 0.658787 17.8744 1.20817 18.4276 1.92072C19.3792 1.15477 20.5341 0.669255 21.7575 0.520875C22.9809 0.372495 24.2223 0.567378 25.3366 1.08276C26.4509 1.59815 27.3921 2.41276 28.0504 3.43144C28.7087 4.45013 29.0568 5.63084 29.0541 6.83567C29.054 7.13343 29.0328 7.43081 28.9906 7.7257C30.1354 7.78222 31.2301 8.20178 32.109 8.92084C32.9879 9.6399 33.6031 10.6193 33.8614 11.7107C34.1198 12.8021 34.0072 13.946 33.5407 14.9692C33.0742 15.9925 32.2793 16.8393 31.2762 17.3814H31.4994C32.3166 17.3823 33.1001 17.6999 33.6779 18.2647C34.2558 18.8294 34.5808 19.5951 34.5817 20.3938ZM4.44617 12.6765C4.49841 11.3612 5.06331 10.1151 6.02513 9.19362C6.98696 8.27211 8.27291 7.74492 9.61957 7.72004C9.83306 7.08486 10.1859 6.50291 10.6534 6.01483C11.1209 5.52675 11.6918 5.14431 12.3262 4.89425C12.9606 4.64419 13.6433 4.53252 14.3264 4.56706C15.0096 4.60159 15.6768 4.78149 16.2815 5.09419C16.5851 4.05878 17.154 3.11621 17.9345 2.35571C17.4405 1.70236 16.7637 1.20266 15.9857 0.916875C15.2077 0.631092 14.3616 0.571444 13.5497 0.745125C12.7377 0.918807 11.9946 1.3184 11.4098 1.89569C10.8251 2.47298 10.4237 3.20331 10.2542 3.99856L10.1545 4.46604L9.74678 4.20225C9.35633 3.94915 8.90983 3.79052 8.44422 3.73947C7.97861 3.68842 7.50725 3.74643 7.06912 3.90868C6.63098 4.07094 6.23866 4.33278 5.92459 4.67258C5.61051 5.01237 5.3837 5.42035 5.26291 5.86278L5.19464 6.11075L4.93186 6.10253L4.82765 5.77295V6.09683C3.96367 6.09459 3.13168 6.41613 2.50292 6.99526C1.87416 7.57439 1.49648 8.36704 1.44761 9.21009C1.39873 10.0531 1.68239 10.8824 2.24019 11.5272C2.798 12.1721 3.58745 12.5834 4.44617 12.6765ZM28.7227 17.3814C29.9458 17.3814 31.1188 16.9066 31.9837 16.0613C32.8485 15.2161 33.3344 14.0697 33.3344 12.8743C33.3344 11.6789 32.8485 10.5325 31.9837 9.68729C31.1188 8.84204 29.9458 8.36718 28.7227 8.36718L28.1894 8.38616L28.2732 7.9851C28.5847 6.50227 28.2816 4.9592 27.4305 3.69449C26.5793 2.42977 25.2496 1.54669 23.733 1.23902C22.2165 0.93134 20.6369 1.22419 19.341 2.05332C18.0452 2.88244 17.1387 4.18012 16.8206 5.66163L16.7209 6.12911L16.3132 5.8653C15.7794 5.51955 15.1691 5.30288 14.5328 5.23321C13.8964 5.16353 13.2522 5.24285 12.6534 5.46461C12.0546 5.68636 11.5183 6.04419 11.089 6.50853C10.6597 6.97286 10.3496 7.53038 10.1843 8.13501L10.1167 8.38108L9.7727 8.37033H9.76687C9.15903 8.36292 8.55569 8.47308 7.99157 8.69446C7.42746 8.91583 6.91371 9.24405 6.47989 9.66023C6.04608 10.0764 5.70076 10.5723 5.46381 11.1195C5.22687 11.6666 5.10297 12.2541 5.09926 12.8482C5.09554 13.4423 5.21208 14.0312 5.44217 14.5811C5.67226 15.131 6.01135 15.631 6.43993 16.0524C6.86851 16.4737 7.37812 16.808 7.93942 17.0361C8.50072 17.2642 9.10264 17.3816 9.71053 17.3814H28.7227ZM25.1537 18.825H20.954V19.4728H25.1537C25.3893 19.4727 25.6196 19.5409 25.8155 19.6688C26.0114 19.7966 26.1641 19.9784 26.2543 20.1911C26.3444 20.4038 26.3681 20.6378 26.3222 20.8636C26.2762 21.0894 26.1628 21.2968 25.9963 21.4596C25.8297 21.6225 25.6175 21.7333 25.3865 21.7783C25.1555 21.8232 24.916 21.8002 24.6983 21.7121C24.4807 21.624 24.2947 21.4748 24.1638 21.2834C24.0329 21.092 23.9631 20.8669 23.9631 20.6367H23.3003C23.3003 20.995 23.4091 21.3452 23.6128 21.6431C23.8165 21.941 24.106 22.1732 24.4447 22.3103C24.7834 22.4473 25.1561 22.4832 25.5157 22.4133C25.8752 22.3433 26.2055 22.1708 26.4647 21.9174C26.7239 21.664 26.9004 21.3412 26.9719 20.9898C27.0434 20.6384 27.0066 20.2741 26.8663 19.9431C26.726 19.6121 26.4884 19.3292 26.1835 19.1302C25.8787 18.9312 25.5203 18.825 25.1537 18.825ZM19.1776 19.4728H19.8611V18.825H19.1776V19.4728ZM17.9035 19.4728H18.587V18.825H17.9035V19.4728ZM16.629 19.4728H17.3125V18.825H16.629V19.4728ZM15.3549 19.4728H16.0384V18.825H15.3549V19.4728ZM11.5688 16.6008H12.2523V15.9531H11.5688V16.6008ZM10.2943 16.6008H10.9778V15.9531H10.2944L10.2943 16.6008Z" fill="#7D7D7D"/>
</svg>
